<svg width="16" height="16" viewBox="0 0 16 16" fill="none" xmlns="http://www.w3.org/2000/svg">
<path opacity="0.4" d="M6.00006 3H10.0001L11.4813 0.7775C11.5316 0.702204 11.5604 0.614683 11.5648 0.524274C11.5692 0.433865 11.549 0.343958 11.5063 0.264145C11.4636 0.184332 11.4 0.117607 11.3224 0.0710869C11.2447 0.024567 11.1559 -2.23135e-06 11.0654 1.51993e-10L4.93569 1.51993e-10C4.84517 -2.23135e-06 4.75635 0.024567 4.67871 0.0710869C4.60106 0.117607 4.5375 0.184332 4.4948 0.264145C4.4521 0.343958 4.43187 0.433865 4.43627 0.524274C4.44066 0.614683 4.46952 0.702204 4.51975 0.7775L6.00006 3ZM10.0001 4H6.00006C-0.324311 7.60625 0.00287671 12.395 0.00287671 13C0.00287671 14.6562 1.53756 16 3.43038 16H12.5704C14.4635 16 15.9979 14.6562 15.9979 13C15.9979 12.4062 16.2901 7.58625 10.0001 4Z" fill="#213F7D"/>
</svg>
